<svg width="1500" height="500" viewBox="0 0 1500 500" fill="none" xmlns="http://www.w3.org/2000/svg">
<rect width="1500" height="500" fill="#D62828"/>
<rect width="1500" height="500" fill="url(#paint0_linear)"/>
<path d="M523.2 204H483.6V322H459.6V204H420V182H523.2V204ZM598.164 308.2C591.497 314.6 584.297 319 576.564 321.4C568.831 323.8 561.231 324.4 553.764 323.2C546.297 322 539.497 319.2 533.364 314.8C527.231 310.4 522.297 304.6 518.564 297.4C514.964 290.2 513.164 281.733 513.164 272C513.164 262 514.964 253.4 518.564 246.2C522.164 238.867 527.031 233.133 533.164 229C539.297 224.733 546.097 222.133 553.564 221.2C561.031 220.267 568.697 221.133 576.564 223.8C584.431 226.333 591.831 230.8 598.764 237.2L582.764 254.2C578.764 249.4 574.164 246.4 568.964 245.2C563.897 244 558.897 244.333 553.964 246.2C549.164 248.067 545.164 251.267 541.964 255.8C538.897 260.2 537.364 265.6 537.364 272C537.364 278.933 538.897 284.667 541.964 289.2C545.164 293.733 549.164 296.933 553.964 298.8C558.764 300.533 563.831 300.8 569.164 299.6C574.497 298.267 579.364 295.267 583.764 290.6L598.164 308.2ZM751.727 251.6C751.727 261.6 749.927 271 746.327 279.8C742.86 288.467 737.993 296.067 731.727 302.6C725.46 309.133 718.193 314.267 709.927 318C701.66 321.733 692.793 323.6 683.327 323.6C673.727 323.6 664.793 321.733 656.527 318C648.26 314.133 640.993 308.933 634.727 302.4C628.46 295.733 623.527 288.067 619.927 279.4C616.46 270.6 614.727 261.333 614.727 251.6C614.727 241.867 616.527 232.733 620.127 224.2C623.727 215.533 628.727 207.933 635.127 201.4C641.527 194.733 648.86 189.533 657.127 185.8C665.393 182.067 674.127 180.2 683.327 180.2C692.793 180.2 701.593 182.067 709.727 185.8C717.993 189.533 725.26 194.733 731.527 201.4C737.927 207.933 742.86 215.533 746.327 224.2C749.927 232.733 751.727 241.867 751.727 251.6ZM726.927 251.6C726.927 242.8 724.927 234.8 720.927 227.6C717.06 220.4 711.793 214.667 705.127 210.4C698.593 206 691.327 203.8 683.327 203.8C675.327 203.8 667.993 206 661.327 210.4C654.66 214.8 649.327 220.667 645.327 228C641.46 235.2 639.527 243.067 639.527 251.6C639.527 260.4 641.46 268.467 645.327 275.8C649.327 283.133 654.66 289 661.327 293.4C667.993 297.8 675.327 300 683.327 300C691.46 300 698.793 297.8 705.327 293.4C711.86 289 717.06 283.133 720.927 275.8C724.927 268.333 726.927 260.267 726.927 251.6ZM793.656 362H769.656V222H793.656V227.4C801.256 222.867 809.056 220.867 817.056 221.4C825.056 221.8 832.456 224.267 839.256 228.8C846.056 233.333 851.523 239.467 855.656 247.2C859.79 254.933 861.856 263.8 861.856 273.8C861.856 282.867 859.79 291.133 855.656 298.6C851.656 306.067 846.19 312.067 839.256 316.6C832.456 321 824.79 323.267 816.256 323.4C814.256 323.4 811.79 323.267 808.856 323C805.923 322.733 803.056 322.267 800.256 321.6C797.59 320.8 795.39 319.8 793.656 318.6V362ZM793.656 296C801.39 299.6 808.59 301 815.256 300.2C821.923 299.4 827.323 296.733 831.456 292.2C835.59 287.533 837.656 281.4 837.656 273.8C837.656 265 835.456 258.067 831.056 253C826.79 247.933 821.323 245.067 814.656 244.4C807.99 243.733 800.99 245.6 793.656 250V296ZM971.659 281.2H901.659C902.193 287.2 904.459 291.8 908.459 295C912.459 298.2 917.393 300.067 923.259 300.6C929.126 301 935.126 300.2 941.259 298.2C947.526 296.067 953.126 292.867 958.059 288.6L971.259 306.8C963.926 312.933 956.459 317.333 948.859 320C941.393 322.533 933.993 323.8 926.659 323.8C909.726 323.8 896.993 319.067 888.459 309.6C880.059 300.133 875.859 286.733 875.859 269.4C875.859 259.533 877.793 250.933 881.659 243.6C885.659 236.267 891.259 230.6 898.459 226.6C905.793 222.6 914.393 220.667 924.259 220.8C945.859 221.067 960.259 229.533 967.459 246.2C969.459 251 970.726 256.267 971.259 262C971.926 267.733 972.059 274.133 971.659 281.2ZM926.459 243.2C918.326 243.2 912.126 245.4 907.859 249.8C903.726 254.2 901.659 259.067 901.659 264.4H951.059C951.059 258.933 948.926 254.067 944.659 249.8C940.526 245.4 934.459 243.2 926.459 243.2ZM1080.16 322H1056.16V263.6C1056.16 258.133 1055.1 254.067 1052.96 251.4C1050.96 248.6 1048.43 246.733 1045.36 245.8C1042.43 244.867 1039.56 244.4 1036.76 244.4C1034.1 244.4 1030.96 244.867 1027.36 245.8C1023.9 246.733 1020.83 248.6 1018.16 251.4C1015.5 254.067 1014.16 258.133 1014.16 263.6V322H990.164V222H1014.16V229.2C1016.43 226.133 1019.96 224 1024.76 222.8C1029.56 221.467 1034.16 220.8 1038.56 220.8C1047.1 220.8 1054.43 222.6 1060.56 226.2C1066.83 229.8 1071.63 234.8 1074.96 241.2C1078.43 247.6 1080.16 255.067 1080.16 263.6V322Z" fill="white"/>
<defs>
<linearGradient id="paint0_linear" x1="750" y1="0" x2="750" y2="500" gradientUnits="userSpaceOnUse">
<stop stop-color="#D62828"/>
<stop offset="1" stop-color="#F11A1A" stop-opacity="0"/>
</linearGradient>
</defs>
</svg>
