<svg data-v-423bf9ae="" xmlns="http://www.w3.org/2000/svg" viewBox="0 0 234.71605072385847 60" class="font"><!----><!----><defs data-v-423bf9ae=""><linearGradient data-v-423bf9ae="" gradientTransform="rotate(25)" id="38b1142e-a537-4fa6-a882-3aac2d980a63" x1="0%" y1="0%" x2="100%" y2="0%"><stop data-v-423bf9ae="" offset="0%" style="stop-color: rgb(255, 0, 0); stop-opacity: 1;"></stop><stop data-v-423bf9ae="" offset="100%" style="stop-color: rgb(15, 15, 15); stop-opacity: 1;"></stop></linearGradient></defs><g data-v-423bf9ae="" id="67837518-ac6c-4575-9305-3c34bf92ccff" fill="url(#38b1142e-a537-4fa6-a882-3aac2d980a63)" transform="matrix(4.938271759983636,0,0,4.938271759983636,-0.9876520767371488,-10.370369748178184)"><path d="M7.71 2.21L0.20 2.21L0.20 3.22L3.43 3.22L3.43 11.48L4.48 11.48L4.48 3.22L7.71 3.22ZM10.60 10.64C9.04 10.64 8.06 9.42 8.06 7.98C8.06 6.54 9.04 5.32 10.60 5.32C11.59 5.32 12.31 5.88 12.63 6.68L13.76 6.68C13.36 5.32 12.11 4.37 10.46 4.37C8.36 4.37 7.01 5.98 7.01 7.98C7.01 9.98 8.36 11.59 10.46 11.59C12.11 11.59 13.36 10.64 13.76 9.28L12.63 9.28C12.31 10.08 11.59 10.64 10.60 10.64ZM19.28 2.10C16.46 2.10 14.57 4.21 14.57 6.85C14.57 9.48 16.46 11.59 19.28 11.59C22.09 11.59 23.98 9.48 23.98 6.85C23.98 4.21 22.09 2.10 19.28 2.10ZM19.28 10.57C17.02 10.57 15.62 8.93 15.62 6.85C15.62 4.76 17.02 3.12 19.28 3.12C21.53 3.12 22.93 4.76 22.93 6.85C22.93 8.93 21.53 10.57 19.28 10.57ZM28.99 11.59C31.04 11.59 32.38 9.98 32.38 7.98C32.38 5.98 31.04 4.37 28.99 4.37C27.83 4.37 27.01 4.84 26.49 5.60L26.49 4.48L25.44 4.48L25.44 14.25L26.49 14.25L26.49 10.35C27.01 11.10 27.83 11.59 28.99 11.59ZM28.85 5.32C30.41 5.32 31.33 6.54 31.33 7.98C31.33 9.42 30.41 10.64 28.85 10.64C27.30 10.64 26.43 9.42 26.43 7.98C26.43 6.54 27.30 5.32 28.85 5.32ZM36.88 10.64C35.46 10.64 34.55 9.65 34.40 8.40L40.26 8.40L40.26 7.98C40.26 5.98 38.93 4.37 36.79 4.37C34.65 4.37 33.32 5.98 33.32 7.98C33.32 9.98 34.72 11.59 36.86 11.59C38.53 11.59 39.56 10.72 40.05 9.46L38.91 9.46C38.53 10.16 37.86 10.64 36.88 10.64ZM36.79 5.32C38.14 5.32 38.98 6.23 39.17 7.42L34.41 7.42C34.61 6.23 35.45 5.32 36.79 5.32ZM41.55 4.48L41.55 11.48L42.60 11.48L42.60 7.45C42.60 6.19 43.55 5.32 44.72 5.32C45.86 5.32 46.68 6.16 46.68 7.43L46.68 11.48L47.73 11.48L47.73 7.41C47.73 5.42 46.37 4.37 44.93 4.37C43.79 4.37 43.11 4.90 42.60 5.57L42.60 4.48Z"></path></g><!----><!----></svg>